<mxfile host="app.diagrams.net" modified="2024-01-30T01:44:59.463Z" agent="Mozilla/5.0 (X11; CrOS x86_64 14541.0.0) AppleWebKit/537.36 (KHTML, like Gecko) Chrome/120.0.0.0 Safari/537.36" etag="5nfxmjmNmfi7L8FqDCyc" version="23.0.2" type="github" pages="5">
  <diagram name="SINIS" id="41HmPV5QtXKCP-y7Z09l">
    <mxGraphModel dx="880" dy="460" grid="1" gridSize="10" guides="1" tooltips="1" connect="1" arrows="1" fold="1" page="1" pageScale="1" pageWidth="827" pageHeight="1169" math="0" shadow="0">
      <root>
        <mxCell id="0" />
        <mxCell id="1" parent="0" />
        <mxCell id="w8LoXrXfBHKts3w-bQ3W-2" value="user" style="rounded=1;whiteSpace=wrap;html=1;" vertex="1" parent="1">
          <mxGeometry x="30" y="310" width="120" height="60" as="geometry" />
        </mxCell>
        <mxCell id="w8LoXrXfBHKts3w-bQ3W-4" value="" style="endArrow=classic;html=1;rounded=0;" edge="1" parent="1">
          <mxGeometry width="50" height="50" relative="1" as="geometry">
            <mxPoint x="150" y="340" as="sourcePoint" />
            <mxPoint x="220" y="340" as="targetPoint" />
          </mxGeometry>
        </mxCell>
        <mxCell id="w8LoXrXfBHKts3w-bQ3W-5" value="Mengungjungi&lt;br&gt;perpus" style="rounded=1;whiteSpace=wrap;html=1;" vertex="1" parent="1">
          <mxGeometry x="220" y="310" width="130" height="60" as="geometry" />
        </mxCell>
        <mxCell id="w8LoXrXfBHKts3w-bQ3W-6" value="Isi from&lt;br&gt;pengunjung" style="rounded=1;whiteSpace=wrap;html=1;" vertex="1" parent="1">
          <mxGeometry x="330" y="200" width="130" height="50" as="geometry" />
        </mxCell>
        <mxCell id="w8LoXrXfBHKts3w-bQ3W-10" value="" style="endArrow=classic;html=1;rounded=0;" edge="1" parent="1">
          <mxGeometry width="50" height="50" relative="1" as="geometry">
            <mxPoint x="350" y="340" as="sourcePoint" />
            <mxPoint x="390" y="250" as="targetPoint" />
            <Array as="points">
              <mxPoint x="390" y="340" />
            </Array>
          </mxGeometry>
        </mxCell>
        <mxCell id="w8LoXrXfBHKts3w-bQ3W-11" value="Kirim" style="rounded=1;whiteSpace=wrap;html=1;" vertex="1" parent="1">
          <mxGeometry x="520" y="190" width="120" height="50" as="geometry" />
        </mxCell>
        <mxCell id="w8LoXrXfBHKts3w-bQ3W-13" value="" style="endArrow=classic;html=1;rounded=0;" edge="1" parent="1">
          <mxGeometry width="50" height="50" relative="1" as="geometry">
            <mxPoint x="460" y="220" as="sourcePoint" />
            <mxPoint x="520" y="220" as="targetPoint" />
          </mxGeometry>
        </mxCell>
        <mxCell id="w8LoXrXfBHKts3w-bQ3W-16" value="" style="endArrow=classic;html=1;rounded=0;" edge="1" parent="1">
          <mxGeometry width="50" height="50" relative="1" as="geometry">
            <mxPoint x="640" y="220" as="sourcePoint" />
            <mxPoint x="690" y="220" as="targetPoint" />
          </mxGeometry>
        </mxCell>
        <mxCell id="w8LoXrXfBHKts3w-bQ3W-17" value="Daftar kunjungan" style="rounded=1;whiteSpace=wrap;html=1;" vertex="1" parent="1">
          <mxGeometry x="690" y="190" width="120" height="55" as="geometry" />
        </mxCell>
        <mxCell id="w8LoXrXfBHKts3w-bQ3W-19" value="" style="endArrow=classic;html=1;rounded=0;" edge="1" parent="1">
          <mxGeometry width="50" height="50" relative="1" as="geometry">
            <mxPoint x="290" y="370" as="sourcePoint" />
            <mxPoint x="350" y="480" as="targetPoint" />
            <Array as="points">
              <mxPoint x="290" y="390" />
              <mxPoint x="290" y="450" />
              <mxPoint x="290" y="480" />
            </Array>
          </mxGeometry>
        </mxCell>
        <mxCell id="w8LoXrXfBHKts3w-bQ3W-20" value="Pencarian&amp;nbsp;&lt;br&gt;Buku" style="rounded=1;whiteSpace=wrap;html=1;" vertex="1" parent="1">
          <mxGeometry x="350" y="460" width="120" height="50" as="geometry" />
        </mxCell>
        <mxCell id="w8LoXrXfBHKts3w-bQ3W-21" value="" style="endArrow=classic;html=1;rounded=0;" edge="1" parent="1">
          <mxGeometry width="50" height="50" relative="1" as="geometry">
            <mxPoint x="470" y="480" as="sourcePoint" />
            <mxPoint x="530" y="480" as="targetPoint" />
          </mxGeometry>
        </mxCell>
        <mxCell id="w8LoXrXfBHKts3w-bQ3W-23" value="masukkan kata&amp;nbsp;&lt;br&gt;kunci judul" style="rounded=1;whiteSpace=wrap;html=1;" vertex="1" parent="1">
          <mxGeometry x="530" y="460" width="120" height="50" as="geometry" />
        </mxCell>
        <mxCell id="w8LoXrXfBHKts3w-bQ3W-24" value="" style="endArrow=classic;html=1;rounded=0;" edge="1" parent="1">
          <mxGeometry width="50" height="50" relative="1" as="geometry">
            <mxPoint x="650" y="480" as="sourcePoint" />
            <mxPoint x="690" y="480" as="targetPoint" />
          </mxGeometry>
        </mxCell>
        <mxCell id="w8LoXrXfBHKts3w-bQ3W-25" value="Hasil pencarian" style="rounded=1;whiteSpace=wrap;html=1;" vertex="1" parent="1">
          <mxGeometry x="690" y="460" width="120" height="50" as="geometry" />
        </mxCell>
        <mxCell id="w8LoXrXfBHKts3w-bQ3W-26" value="" style="endArrow=classic;html=1;rounded=0;" edge="1" parent="1">
          <mxGeometry width="50" height="50" relative="1" as="geometry">
            <mxPoint x="749.5" y="510" as="sourcePoint" />
            <mxPoint x="750" y="630" as="targetPoint" />
          </mxGeometry>
        </mxCell>
        <mxCell id="w8LoXrXfBHKts3w-bQ3W-27" value="Lihat rincian buku" style="rounded=1;whiteSpace=wrap;html=1;" vertex="1" parent="1">
          <mxGeometry x="670" y="630" width="150" height="50" as="geometry" />
        </mxCell>
        <mxCell id="w8LoXrXfBHKts3w-bQ3W-28" value="" style="endArrow=classic;html=1;rounded=0;" edge="1" parent="1">
          <mxGeometry width="50" height="50" relative="1" as="geometry">
            <mxPoint x="400" y="507" as="sourcePoint" />
            <mxPoint x="670" y="650" as="targetPoint" />
            <Array as="points">
              <mxPoint x="400" y="647" />
            </Array>
          </mxGeometry>
        </mxCell>
      </root>
    </mxGraphModel>
  </diagram>
  <diagram id="RNqCNkgmdgdUp7yP5W9C" name="ADMIN">
    <mxGraphModel dx="1100" dy="589" grid="1" gridSize="10" guides="1" tooltips="1" connect="1" arrows="1" fold="1" page="1" pageScale="1" pageWidth="827" pageHeight="1169" math="0" shadow="0">
      <root>
        <mxCell id="0" />
        <mxCell id="1" parent="0" />
        <mxCell id="rmrriUZCw3yFrmq3Pbls-1" value="" style="whiteSpace=wrap;html=1;aspect=fixed;" vertex="1" parent="1">
          <mxGeometry x="120" y="45" width="530" height="530" as="geometry" />
        </mxCell>
        <mxCell id="rmrriUZCw3yFrmq3Pbls-20" style="edgeStyle=none;rounded=0;orthogonalLoop=1;jettySize=auto;html=1;exitX=1;exitY=0.3333333333333333;exitDx=0;exitDy=0;exitPerimeter=0;entryX=0.009;entryY=0.161;entryDx=0;entryDy=0;entryPerimeter=0;endArrow=none;endFill=0;" edge="1" parent="1" target="rmrriUZCw3yFrmq3Pbls-15">
          <mxGeometry relative="1" as="geometry">
            <mxPoint x="110" y="176.66666666666674" as="sourcePoint" />
            <mxPoint x="301.27999999999975" y="198" as="targetPoint" />
          </mxGeometry>
        </mxCell>
        <mxCell id="rmrriUZCw3yFrmq3Pbls-3" value="admin" style="shape=umlActor;verticalLabelPosition=bottom;verticalAlign=top;html=1;outlineConnect=0;" vertex="1" parent="1">
          <mxGeometry x="50" y="130" width="70" height="140" as="geometry" />
        </mxCell>
        <mxCell id="rmrriUZCw3yFrmq3Pbls-4" value="guru" style="ellipse;whiteSpace=wrap;html=1;" vertex="1" parent="1">
          <mxGeometry x="410" y="280" width="120" height="60" as="geometry" />
        </mxCell>
        <mxCell id="rmrriUZCw3yFrmq3Pbls-5" value="mapel" style="ellipse;whiteSpace=wrap;html=1;" vertex="1" parent="1">
          <mxGeometry x="410" y="180" width="120" height="60" as="geometry" />
        </mxCell>
        <mxCell id="rmrriUZCw3yFrmq3Pbls-6" value="login" style="ellipse;whiteSpace=wrap;html=1;" vertex="1" parent="1">
          <mxGeometry x="410" y="80" width="120" height="60" as="geometry" />
        </mxCell>
        <mxCell id="rmrriUZCw3yFrmq3Pbls-7" value="siswa" style="ellipse;whiteSpace=wrap;html=1;" vertex="1" parent="1">
          <mxGeometry x="410" y="390" width="120" height="60" as="geometry" />
        </mxCell>
        <mxCell id="rmrriUZCw3yFrmq3Pbls-15" value="" style="shape=partialRectangle;whiteSpace=wrap;html=1;right=0;top=0;bottom=0;fillColor=none;routingCenterX=-0.5;" vertex="1" parent="1">
          <mxGeometry x="310" y="110" width="80" height="420" as="geometry" />
        </mxCell>
        <mxCell id="rmrriUZCw3yFrmq3Pbls-21" value="" style="endArrow=classic;html=1;rounded=0;" edge="1" parent="1">
          <mxGeometry relative="1" as="geometry">
            <mxPoint x="310" y="110" as="sourcePoint" />
            <mxPoint x="410" y="110" as="targetPoint" />
          </mxGeometry>
        </mxCell>
        <mxCell id="rmrriUZCw3yFrmq3Pbls-26" value="masuk" style="edgeLabel;html=1;align=center;verticalAlign=middle;resizable=0;points=[];" vertex="1" connectable="0" parent="rmrriUZCw3yFrmq3Pbls-21">
          <mxGeometry x="0.15" y="2" relative="1" as="geometry">
            <mxPoint as="offset" />
          </mxGeometry>
        </mxCell>
        <mxCell id="rmrriUZCw3yFrmq3Pbls-23" value="" style="endArrow=classic;html=1;rounded=0;" edge="1" parent="1">
          <mxGeometry relative="1" as="geometry">
            <mxPoint x="310" y="420" as="sourcePoint" />
            <mxPoint x="410" y="420" as="targetPoint" />
          </mxGeometry>
        </mxCell>
        <mxCell id="rmrriUZCw3yFrmq3Pbls-32" value="mengelola" style="edgeLabel;html=1;align=center;verticalAlign=middle;resizable=0;points=[];" vertex="1" connectable="0" parent="rmrriUZCw3yFrmq3Pbls-23">
          <mxGeometry x="-0.125" relative="1" as="geometry">
            <mxPoint as="offset" />
          </mxGeometry>
        </mxCell>
        <mxCell id="rmrriUZCw3yFrmq3Pbls-27" value="" style="endArrow=classic;html=1;rounded=0;" edge="1" parent="1">
          <mxGeometry relative="1" as="geometry">
            <mxPoint x="310" y="310" as="sourcePoint" />
            <mxPoint x="410" y="310" as="targetPoint" />
          </mxGeometry>
        </mxCell>
        <mxCell id="rmrriUZCw3yFrmq3Pbls-28" value="mengelola" style="edgeLabel;resizable=0;html=1;align=center;verticalAlign=middle;" connectable="0" vertex="1" parent="rmrriUZCw3yFrmq3Pbls-27">
          <mxGeometry relative="1" as="geometry" />
        </mxCell>
        <mxCell id="rmrriUZCw3yFrmq3Pbls-29" value="" style="endArrow=classic;html=1;rounded=0;" edge="1" parent="1">
          <mxGeometry relative="1" as="geometry">
            <mxPoint x="310" y="209.38" as="sourcePoint" />
            <mxPoint x="410" y="209.38" as="targetPoint" />
          </mxGeometry>
        </mxCell>
        <mxCell id="rmrriUZCw3yFrmq3Pbls-31" value="mengelola" style="edgeLabel;html=1;align=center;verticalAlign=middle;resizable=0;points=[];" vertex="1" connectable="0" parent="rmrriUZCw3yFrmq3Pbls-29">
          <mxGeometry x="0.05" y="3" relative="1" as="geometry">
            <mxPoint as="offset" />
          </mxGeometry>
        </mxCell>
        <mxCell id="rmrriUZCw3yFrmq3Pbls-33" value="" style="endArrow=classic;html=1;rounded=0;" edge="1" parent="1">
          <mxGeometry relative="1" as="geometry">
            <mxPoint x="313" y="530" as="sourcePoint" />
            <mxPoint x="413" y="530" as="targetPoint" />
            <Array as="points">
              <mxPoint x="310" y="530" />
            </Array>
          </mxGeometry>
        </mxCell>
        <mxCell id="rmrriUZCw3yFrmq3Pbls-37" value="mengelola" style="edgeLabel;html=1;align=center;verticalAlign=middle;resizable=0;points=[];" vertex="1" connectable="0" parent="rmrriUZCw3yFrmq3Pbls-33">
          <mxGeometry x="0.0708" y="-2" relative="1" as="geometry">
            <mxPoint x="1" as="offset" />
          </mxGeometry>
        </mxCell>
        <mxCell id="rmrriUZCw3yFrmq3Pbls-36" value="nilai" style="ellipse;whiteSpace=wrap;html=1;" vertex="1" parent="1">
          <mxGeometry x="413" y="490" width="107" height="60" as="geometry" />
        </mxCell>
      </root>
    </mxGraphModel>
  </diagram>
  <diagram id="k0oabXc81jtHbc4AsLlu" name="SISWA">
    <mxGraphModel dx="883" dy="471" grid="1" gridSize="10" guides="1" tooltips="1" connect="1" arrows="1" fold="1" page="1" pageScale="1" pageWidth="827" pageHeight="1169" math="0" shadow="0">
      <root>
        <mxCell id="0" />
        <mxCell id="1" parent="0" />
        <mxCell id="oVdmR4SpfeOUx0t1hZsl-1" value="" style="whiteSpace=wrap;html=1;aspect=fixed;" vertex="1" parent="1">
          <mxGeometry x="170" y="55" width="360" height="360" as="geometry" />
        </mxCell>
        <mxCell id="oVdmR4SpfeOUx0t1hZsl-9" style="edgeStyle=none;rounded=0;orthogonalLoop=1;jettySize=auto;html=1;exitX=1;exitY=0.3333333333333333;exitDx=0;exitDy=0;exitPerimeter=0;entryX=0.405;entryY=0.22;entryDx=0;entryDy=0;entryPerimeter=0;endArrow=none;endFill=0;" edge="1" parent="1" source="oVdmR4SpfeOUx0t1hZsl-2" target="oVdmR4SpfeOUx0t1hZsl-7">
          <mxGeometry relative="1" as="geometry" />
        </mxCell>
        <mxCell id="oVdmR4SpfeOUx0t1hZsl-2" value="siswa" style="shape=umlActor;verticalLabelPosition=bottom;verticalAlign=top;html=1;outlineConnect=0;" vertex="1" parent="1">
          <mxGeometry x="90" y="170" width="70" height="130" as="geometry" />
        </mxCell>
        <mxCell id="oVdmR4SpfeOUx0t1hZsl-13" style="edgeStyle=none;rounded=0;orthogonalLoop=1;jettySize=auto;html=1;exitX=0;exitY=0.5;exitDx=0;exitDy=0;exitPerimeter=0;" edge="1" parent="1" source="oVdmR4SpfeOUx0t1hZsl-7" target="oVdmR4SpfeOUx0t1hZsl-10">
          <mxGeometry relative="1" as="geometry" />
        </mxCell>
        <mxCell id="oVdmR4SpfeOUx0t1hZsl-14" style="edgeStyle=none;rounded=0;orthogonalLoop=1;jettySize=auto;html=1;exitX=1;exitY=0.5;exitDx=0;exitDy=0;exitPerimeter=0;entryX=-0.046;entryY=0.664;entryDx=0;entryDy=0;entryPerimeter=0;" edge="1" parent="1" source="oVdmR4SpfeOUx0t1hZsl-7" target="oVdmR4SpfeOUx0t1hZsl-11">
          <mxGeometry relative="1" as="geometry" />
        </mxCell>
        <mxCell id="oVdmR4SpfeOUx0t1hZsl-7" value="" style="line;strokeWidth=2;direction=south;html=1;" vertex="1" parent="1">
          <mxGeometry x="250" y="150" width="10" height="160" as="geometry" />
        </mxCell>
        <mxCell id="oVdmR4SpfeOUx0t1hZsl-10" value="login" style="ellipse;whiteSpace=wrap;html=1;fillColor=#d5e8d4;strokeColor=#82b366;" vertex="1" parent="1">
          <mxGeometry x="310" y="120" width="90" height="60" as="geometry" />
        </mxCell>
        <mxCell id="oVdmR4SpfeOUx0t1hZsl-11" value="lihat" style="ellipse;whiteSpace=wrap;html=1;fillColor=#d5e8d4;strokeColor=#82b366;" vertex="1" parent="1">
          <mxGeometry x="310" y="270" width="90" height="60" as="geometry" />
        </mxCell>
      </root>
    </mxGraphModel>
  </diagram>
  <diagram id="1SfqO2ISiDC12HAwP9RP" name="GURU">
    <mxGraphModel dx="1039" dy="554" grid="1" gridSize="10" guides="1" tooltips="1" connect="1" arrows="1" fold="1" page="1" pageScale="1" pageWidth="827" pageHeight="1169" math="0" shadow="0">
      <root>
        <mxCell id="0" />
        <mxCell id="1" parent="0" />
        <mxCell id="oNnyTqyIt1i3HWgRXxXS-2" value="" style="whiteSpace=wrap;html=1;aspect=fixed;" vertex="1" parent="1">
          <mxGeometry x="220" y="120" width="430" height="430" as="geometry" />
        </mxCell>
        <mxCell id="oNnyTqyIt1i3HWgRXxXS-3" value="guru" style="shape=umlActor;verticalLabelPosition=bottom;verticalAlign=top;html=1;outlineConnect=0;" vertex="1" parent="1">
          <mxGeometry x="90" y="260" width="80" height="170" as="geometry" />
        </mxCell>
        <mxCell id="oNnyTqyIt1i3HWgRXxXS-17" style="edgeStyle=none;rounded=0;orthogonalLoop=1;jettySize=auto;html=1;exitX=0;exitY=0.5;exitDx=0;exitDy=0;exitPerimeter=0;" edge="1" parent="1" source="oNnyTqyIt1i3HWgRXxXS-10" target="oNnyTqyIt1i3HWgRXxXS-13">
          <mxGeometry relative="1" as="geometry" />
        </mxCell>
        <mxCell id="oNnyTqyIt1i3HWgRXxXS-10" value="" style="line;strokeWidth=2;direction=south;html=1;" vertex="1" parent="1">
          <mxGeometry x="260" y="250" width="10" height="210" as="geometry" />
        </mxCell>
        <mxCell id="oNnyTqyIt1i3HWgRXxXS-13" value="" style="ellipse;whiteSpace=wrap;html=1;" vertex="1" parent="1">
          <mxGeometry x="320" y="210" width="120" height="70" as="geometry" />
        </mxCell>
        <mxCell id="oNnyTqyIt1i3HWgRXxXS-14" value="" style="ellipse;whiteSpace=wrap;html=1;" vertex="1" parent="1">
          <mxGeometry x="320" y="305" width="120" height="65" as="geometry" />
        </mxCell>
        <mxCell id="oNnyTqyIt1i3HWgRXxXS-15" value="" style="ellipse;whiteSpace=wrap;html=1;" vertex="1" parent="1">
          <mxGeometry x="320" y="400" width="120" height="70" as="geometry" />
        </mxCell>
      </root>
    </mxGraphModel>
  </diagram>
  <diagram id="wZuUJbOOzN-WjNwJY47R" name="Page-5">
    <mxGraphModel dx="1257" dy="673" grid="1" gridSize="10" guides="1" tooltips="1" connect="1" arrows="1" fold="1" page="1" pageScale="1" pageWidth="827" pageHeight="1169" math="0" shadow="0">
      <root>
        <mxCell id="0" />
        <mxCell id="1" parent="0" />
        <mxCell id="DZDjAacfIVTG7cQtKvsq-3" value="" style="edgeStyle=orthogonalEdgeStyle;html=1;verticalAlign=bottom;endArrow=open;endSize=8;strokeColor=#ff0000;rounded=0;" edge="1" parent="1">
          <mxGeometry relative="1" as="geometry">
            <mxPoint x="285" y="290" as="targetPoint" />
            <mxPoint x="285.0000000000002" y="289.9999999999999" as="sourcePoint" />
          </mxGeometry>
        </mxCell>
        <mxCell id="DZDjAacfIVTG7cQtKvsq-4" value="" style="ellipse;html=1;shape=startState;fillColor=#000000;strokeColor=#ff0000;" vertex="1" parent="1">
          <mxGeometry x="50" y="180" width="30" height="30" as="geometry" />
        </mxCell>
        <mxCell id="DZDjAacfIVTG7cQtKvsq-5" value="" style="edgeStyle=orthogonalEdgeStyle;html=1;verticalAlign=bottom;endArrow=open;endSize=8;strokeColor=#ff0000;rounded=0;" edge="1" source="DZDjAacfIVTG7cQtKvsq-4" parent="1">
          <mxGeometry relative="1" as="geometry">
            <mxPoint x="65" y="270" as="targetPoint" />
          </mxGeometry>
        </mxCell>
        <mxCell id="DZDjAacfIVTG7cQtKvsq-6" value="&lt;font style=&quot;font-size: 20px;&quot;&gt;login&lt;/font&gt;" style="ellipse;whiteSpace=wrap;html=1;strokeWidth=2;" vertex="1" parent="1">
          <mxGeometry x="5" y="280" width="120" height="80" as="geometry" />
        </mxCell>
        <mxCell id="DZDjAacfIVTG7cQtKvsq-9" value="" style="ellipse;whiteSpace=wrap;html=1;" vertex="1" parent="1">
          <mxGeometry x="390" y="400" width="120" height="80" as="geometry" />
        </mxCell>
      </root>
    </mxGraphModel>
  </diagram>
</mxfile>
